<svg width="196" height="27" viewBox="0 0 196 27" fill="none" xmlns="http://www.w3.org/2000/svg">
<path d="M0.415 1.01H5.91V21.38H18.09V26H0.415V1.01ZM20.0771 13.61C20.0771 11.7433 20.3571 10.0167 20.9171 8.43C21.4771 6.84333 22.2821 5.44333 23.3321 4.23C24.3821 3.04 25.6771 2.10667 27.2171 1.43C28.7571 0.753333 30.4721 0.415 32.3621 0.415C34.2987 0.415 36.0254 0.753333 37.5421 1.43C39.0587 2.10667 40.3421 3.04 41.3921 4.23C42.4421 5.44333 43.2471 6.84333 43.8071 8.43C44.3671 10.0167 44.6471 11.7433 44.6471 13.61C44.6471 15.43 44.3671 17.1333 43.8071 18.72C43.2471 20.3067 42.4421 21.6717 41.3921 22.815C40.3421 24.005 39.0587 24.9267 37.5421 25.58C36.0254 26.2333 34.2987 26.56 32.3621 26.56C30.4721 26.56 28.7571 26.2333 27.2171 25.58C25.6771 24.9267 24.3821 24.005 23.3321 22.815C22.2821 21.6717 21.4771 20.3067 20.9171 18.72C20.3571 17.1333 20.0771 15.43 20.0771 13.61ZM25.5721 13.61C25.5954 14.6833 25.7237 15.71 25.9571 16.69C26.1904 17.67 26.5754 18.5567 27.1121 19.35C27.6487 20.1433 28.3487 20.7733 29.2121 21.24C30.0754 21.7067 31.1254 21.9517 32.3621 21.975C33.5987 21.9517 34.6487 21.7067 35.5121 21.24C36.3754 20.7733 37.0754 20.1433 37.6121 19.35C38.1487 18.5567 38.5337 17.67 38.7671 16.69C39.0004 15.71 39.1287 14.6833 39.1521 13.61C39.1287 12.5133 39.0004 11.4517 38.7671 10.425C38.5337 9.375 38.1487 8.45333 37.6121 7.66C37.0754 6.86667 36.3754 6.23667 35.5121 5.77C34.6487 5.30333 33.5987 5.05833 32.3621 5.035C31.1254 5.05833 30.0754 5.30333 29.2121 5.77C28.3487 6.23667 27.6487 6.86667 27.1121 7.66C26.5754 8.45333 26.1904 9.375 25.9571 10.425C25.7237 11.4517 25.5954 12.5133 25.5721 13.61ZM66.4633 23.165C65.4833 24.4017 64.3983 25.2767 63.2083 25.79C62.0183 26.3033 60.8166 26.56 59.6033 26.56C57.7133 26.56 55.9983 26.2333 54.4583 25.58C52.9183 24.9267 51.6233 24.005 50.5733 22.815C49.5233 21.6717 48.7183 20.3067 48.1583 18.72C47.5983 17.1333 47.3183 15.43 47.3183 13.61C47.3183 11.7433 47.5983 10.0167 48.1583 8.43C48.7183 6.84333 49.5233 5.44333 50.5733 4.23C51.6233 3.04 52.9183 2.10667 54.4583 1.43C55.9983 0.753333 57.7133 0.415 59.6033 0.415C60.8866 0.438333 62.1349 0.636666 63.3483 1.01C64.5616 1.38333 65.6349 1.94333 66.5683 2.69C67.5483 3.43667 68.3533 4.35833 68.9833 5.455C69.6133 6.55167 69.9983 7.81167 70.1383 9.235H64.8883C64.5616 7.835 63.9316 6.785 62.9983 6.085C62.0649 5.385 60.9333 5.035 59.6033 5.035C58.3666 5.05833 57.3166 5.30333 56.4533 5.77C55.5899 6.23667 54.8899 6.86667 54.3533 7.66C53.8166 8.45333 53.4316 9.375 53.1983 10.425C52.9649 11.4517 52.8366 12.5133 52.8133 13.61C52.8366 14.6833 52.9649 15.71 53.1983 16.69C53.4316 17.67 53.8166 18.5567 54.3533 19.35C54.8899 20.1433 55.5899 20.7733 56.4533 21.24C57.3166 21.7067 58.3666 21.9517 59.6033 21.975C61.4466 21.9983 62.8583 21.5433 63.8383 20.61C64.8183 19.6767 65.3899 18.335 65.5533 16.585H60.0233V12.49H70.5233V26H67.0233L66.4633 23.165ZM73.8759 13.61C73.8759 11.7433 74.1559 10.0167 74.7159 8.43C75.2759 6.84333 76.0809 5.44333 77.1309 4.23C78.1809 3.04 79.4759 2.10667 81.0159 1.43C82.5559 0.753333 84.2709 0.415 86.1609 0.415C88.0976 0.415 89.8242 0.753333 91.3409 1.43C92.8576 2.10667 94.1409 3.04 95.1909 4.23C96.2409 5.44333 97.0459 6.84333 97.6059 8.43C98.1659 10.0167 98.4459 11.7433 98.4459 13.61C98.4459 15.43 98.1659 17.1333 97.6059 18.72C97.0459 20.3067 96.2409 21.6717 95.1909 22.815C94.1409 24.005 92.8576 24.9267 91.3409 25.58C89.8242 26.2333 88.0976 26.56 86.1609 26.56C84.2709 26.56 82.5559 26.2333 81.0159 25.58C79.4759 24.9267 78.1809 24.005 77.1309 22.815C76.0809 21.6717 75.2759 20.3067 74.7159 18.72C74.1559 17.1333 73.8759 15.43 73.8759 13.61ZM79.3709 13.61C79.3942 14.6833 79.5226 15.71 79.7559 16.69C79.9892 17.67 80.3742 18.5567 80.9109 19.35C81.4476 20.1433 82.1476 20.7733 83.0109 21.24C83.8742 21.7067 84.9242 21.9517 86.1609 21.975C87.3976 21.9517 88.4476 21.7067 89.3109 21.24C90.1742 20.7733 90.8742 20.1433 91.4109 19.35C91.9476 18.5567 92.3326 17.67 92.5659 16.69C92.7992 15.71 92.9276 14.6833 92.9509 13.61C92.9276 12.5133 92.7992 11.4517 92.5659 10.425C92.3326 9.375 91.9476 8.45333 91.4109 7.66C90.8742 6.86667 90.1742 6.23667 89.3109 5.77C88.4476 5.30333 87.3976 5.05833 86.1609 5.035C84.9242 5.05833 83.8742 5.30333 83.0109 5.77C82.1476 6.23667 81.4476 6.86667 80.9109 7.66C80.3742 8.45333 79.9892 9.375 79.7559 10.425C79.5226 11.4517 79.3942 12.5133 79.3709 13.61ZM102.202 1.01H107.697V10.6H117.812V1.01H123.307V26H117.812V15.22H107.697V26H102.202V1.01ZM128.144 1.01H146.834V5.63H133.639V10.985H145.749V15.255H133.639V21.38H147.114V26H128.144V1.01ZM150.84 1.01H164.315C165.435 1.01 166.438 1.19667 167.325 1.57C168.211 1.94333 168.981 2.43333 169.635 3.04C170.288 3.64667 170.778 4.37 171.105 5.21C171.431 6.05 171.606 6.94833 171.63 7.905C171.606 9.375 171.291 10.6467 170.685 11.72C170.078 12.7933 169.075 13.61 167.675 14.17V14.24C168.351 14.4267 168.911 14.7067 169.355 15.08C169.798 15.4533 170.16 15.92 170.44 16.48C170.696 16.9933 170.895 17.565 171.035 18.195C171.175 18.825 171.268 19.455 171.315 20.085C171.338 20.4817 171.361 20.9483 171.385 21.485C171.431 22.0217 171.478 22.57 171.525 23.13C171.571 23.69 171.665 24.2267 171.805 24.74C171.945 25.2533 172.131 25.6733 172.365 26H166.87C166.566 25.2067 166.38 24.2617 166.31 23.165C166.24 22.0683 166.135 21.0183 165.995 20.015C165.808 18.7083 165.411 17.7517 164.805 17.145C164.198 16.5383 163.206 16.235 161.83 16.235H156.335V26H150.84V1.01ZM156.335 12.315H162.355C163.615 12.315 164.56 12.035 165.19 11.475C165.82 10.915 166.135 10.005 166.135 8.745C166.135 7.555 165.82 6.68 165.19 6.12C164.56 5.56 163.615 5.28 162.355 5.28H156.335V12.315ZM176.099 1.01H194.789V5.63H181.594V10.985H193.704V15.255H181.594V21.38H195.069V26H176.099V1.01Z" fill="#1D43FF"/>
</svg>
